<svg width="21" height="21" viewBox="0 0 21 21" fill="none" xmlns="http://www.w3.org/2000/svg">
<g clip-path="url(#clip0_1_32)">
<path fill-rule="evenodd" clip-rule="evenodd" d="M11.6786 4.07577C12.1113 4.34937 12.5991 5.16833 12.3199 5.69588C12.0819 6.14548 11.5736 6.76354 11.7116 6.67079C12.0195 6.46601 12.6248 5.94374 13.054 5.81875C13.3666 5.72734 13.7335 5.73668 14.0195 5.9449C14.2607 6.11929 14.4878 6.36741 14.6189 6.63972C14.7579 6.92737 14.7802 7.3242 14.6863 7.55059C14.4106 8.21632 13.3999 8.99518 13.4643 8.96744C13.7193 8.85331 14.4837 8.27751 14.8952 8.23147C15.1675 8.201 15.5504 8.35661 15.6927 8.48702C15.9124 8.6892 16.1447 8.96727 16.2839 9.24852C16.396 9.47619 16.3659 9.92306 16.3075 10.0822C16.1668 10.4649 15.4688 11.1524 15.2193 11.3893C15.1169 11.4875 15.5766 11.2097 15.9822 11.1757C16.7365 11.1108 17.7074 12.1787 16.6256 13.0722C16.1215 13.4896 16.1417 13.4667 15.7919 13.7336C15.3817 14.0466 15.1264 14.2264 14.8121 14.431C14.4767 14.6492 13.7051 15.1298 13.2811 15.2962C12.9896 15.4104 12.2785 15.5946 11.7847 15.6167C11.7847 15.6167 10.1394 15.5212 9.62169 15.7691C9.10314 16.0177 9.12362 16.0511 8.79267 16.2735C8.46152 16.4973 8.13232 16.9296 8.13232 16.9296C8.13232 16.9296 7.56371 16.3559 7.35668 15.9693C7.16877 15.6208 7.49363 14.7641 7.607 14.5203C7.7634 14.1846 7.49067 13.9311 7.21154 13.9642C6.77118 14.0185 5.93081 14.0497 5.68976 13.8047C5.21713 13.3238 4.41923 12.1892 3.76896 11.3206C3.76896 11.3206 4.6849 10.8544 4.71081 10.3163C4.73247 9.91615 4.83054 9.1809 4.85946 8.76385L5.08688 7.54371C5.20139 7.10033 5.21754 6.18357 5.91081 5.35135C6.52568 4.6142 6.90331 4.35244 7.34035 4.30699C7.78397 4.26028 8.21504 4.48229 8.35528 4.60673C8.51486 4.7466 8.80609 5.13318 8.83682 5.33993C8.87432 5.59183 8.9003 5.68522 8.82204 5.96508C8.71751 6.33416 8.64881 6.48974 8.85506 6.20781C9.01724 5.98845 9.13273 5.59087 9.36289 5.27434C9.58375 4.96869 9.86927 4.38348 10.3455 4.0465C10.526 3.91879 11.0209 3.66065 11.6786 4.07577Z" fill="white"/>
<path fill-rule="evenodd" clip-rule="evenodd" d="M11.6786 4.07577C12.1113 4.34937 12.5991 5.16833 12.3199 5.69588C12.0819 6.14548 11.5736 6.76354 11.7116 6.67079C12.0195 6.46601 12.6248 5.94374 13.054 5.81875C13.3666 5.72734 13.7335 5.73668 14.0195 5.9449C14.2607 6.11929 14.4878 6.36741 14.6189 6.63972C14.7579 6.92737 14.7802 7.3242 14.6863 7.55059C14.4106 8.21632 13.3999 8.99518 13.4643 8.96744C13.7193 8.85331 14.4837 8.27751 14.8952 8.23147C15.1675 8.201 15.5504 8.35661 15.6927 8.48702C15.9124 8.6892 16.1447 8.96727 16.2839 9.24852C16.396 9.47619 16.3659 9.92306 16.3075 10.0822C16.1668 10.4649 15.4688 11.1524 15.2193 11.3893C15.1169 11.4875 15.5766 11.2097 15.9822 11.1757C16.7365 11.1108 17.7074 12.1787 16.6256 13.0722C16.1215 13.4896 16.1417 13.4667 15.7919 13.7336C15.3817 14.0466 15.1264 14.2264 14.8121 14.431C14.4767 14.6492 13.7051 15.1298 13.2811 15.2962C12.9896 15.4104 12.2785 15.5946 11.7847 15.6167C11.7847 15.6167 10.1394 15.5212 9.62169 15.7691C9.10314 16.0177 9.12362 16.0511 8.79267 16.2735C8.46152 16.4973 8.13232 16.9296 8.13232 16.9296C8.13232 16.9296 7.56371 16.3559 7.35668 15.9693C7.16876 15.6208 7.49363 14.7641 7.607 14.5203C7.7634 14.1846 7.49067 13.9311 7.21154 13.9642C6.77118 14.0185 5.93081 14.0497 5.68976 13.8047C5.21713 13.3238 4.41923 12.1892 3.76896 11.3206C3.76896 11.3206 4.6849 10.8544 4.71081 10.3163C4.73247 9.91615 4.83054 9.1809 4.85946 8.76385L5.08688 7.54371C5.20139 7.10033 5.21754 6.18357 5.91081 5.35135C6.52568 4.6142 6.90331 4.35244 7.34035 4.30699C7.78397 4.26028 8.21504 4.48229 8.35528 4.60673C8.51486 4.7466 8.80609 5.13318 8.83682 5.33993C8.87432 5.59183 8.9003 5.68522 8.82204 5.96508C8.71751 6.33416 8.64881 6.48974 8.85506 6.20781C9.01724 5.98845 9.13273 5.59087 9.36289 5.27434C9.58375 4.96869 9.86927 4.38348 10.3455 4.0465C10.526 3.91879 11.0209 3.66065 11.6786 4.07577Z" stroke="black" stroke-width="0.75" stroke-linejoin="round"/>
<path d="M9.80116 14.3053L12.5509 12.2069" stroke="black" stroke-width="0.75" stroke-linecap="round"/>
<path d="M8.56908 12.7101L11.3203 10.5905" stroke="black" stroke-width="0.75" stroke-linecap="round"/>
<path d="M10.0939 9.03553L7.38311 11.1306" stroke="black" stroke-width="0.75" stroke-linecap="round"/>
</g>
<defs>
<clipPath id="clip0_1_32">
<rect width="15" height="14" fill="white" transform="translate(11.1295) rotate(52.6519)"/>
</clipPath>
</defs>
</svg>
