<svg width="13" height="17" viewBox="0 0 13 17" fill="none" xmlns="http://www.w3.org/2000/svg">
<path fill-rule="evenodd" clip-rule="evenodd" d="M11.3224 5.31954C11.5032 5.7985 11.3997 6.74611 10.8591 6.99923C10.3984 7.21489 9.62042 7.40238 9.78648 7.41143C10.1556 7.4333 10.9533 7.3807 11.3712 7.53929C11.6759 7.65454 11.9632 7.88288 12.0662 8.2213C12.1538 8.50579 12.1858 8.84062 12.1265 9.13696C12.0643 9.45033 11.8432 9.78061 11.6319 9.90483C11.011 10.2704 9.73504 10.2838 9.80314 10.3004C10.0755 10.3628 11.0325 10.3633 11.3887 10.5742C11.6245 10.7139 11.8366 11.0687 11.8717 11.2585C11.9254 11.5522 11.9435 11.9141 11.8853 12.2224C11.8377 12.4717 11.5446 12.8104 11.4022 12.9022C11.0594 13.1232 10.0882 13.2518 9.74638 13.2908C9.60547 13.3076 10.1398 13.3625 10.4841 13.5795C11.1254 13.9818 11.2577 15.4191 9.85601 15.4812C9.20217 15.5109 9.23213 15.5048 8.79214 15.5073C8.27615 15.5103 7.96408 15.5001 7.58993 15.4742C7.19076 15.4465 6.28528 15.3657 5.84657 15.2433C5.54508 15.159 4.86644 14.8779 4.45883 14.5983C4.45883 14.5983 3.20265 13.5315 2.63999 13.4177C2.07632 13.304 2.07255 13.343 1.67442 13.3213C1.27529 13.3006 0.75213 13.4476 0.75213 13.4476C0.75213 13.4476 0.643513 12.6472 0.711016 12.2138C0.770761 11.8225 1.54596 11.334 1.78323 11.2076C2.11024 11.0337 2.04512 10.6671 1.8023 10.5255C1.41802 10.3037 0.728231 9.82269 0.683266 9.48194C0.59541 8.81344 0.641418 7.42715 0.645163 6.34211C0.645163 6.34211 1.65721 6.52128 2.00183 6.10728C2.26007 5.80079 2.78103 5.27278 3.05522 4.95719L3.97141 4.1199C4.32977 3.83483 4.89461 3.11256 5.94921 2.86547C6.88396 2.64708 7.34308 2.66543 7.71939 2.89227C8.10172 3.12207 8.31224 3.55886 8.3493 3.74265C8.3925 3.9504 8.39229 4.43441 8.29235 4.61799C8.17064 4.8417 8.13516 4.9319 7.90417 5.10824C7.5985 5.34001 7.44998 5.42286 7.7844 5.32193C8.04596 5.24442 8.37753 4.99651 8.75188 4.88235C9.11225 4.77127 9.69255 4.47592 10.2757 4.49356C10.4967 4.50028 11.0472 4.59211 11.3224 5.31954Z" fill="white"/>
<path fill-rule="evenodd" clip-rule="evenodd" d="M11.0676 5.81954C11.2484 6.29851 11.1449 7.24612 10.6043 7.49924C10.1436 7.7149 9.36563 7.90239 9.53168 7.91143C9.90082 7.9333 10.6985 7.8807 11.1164 8.0393C11.4211 8.15454 11.7084 8.38289 11.8114 8.7213C11.899 9.0058 11.931 9.34062 11.8717 9.63697C11.8095 9.95033 11.5884 10.2806 11.3771 10.4048C10.7562 10.7704 9.48024 10.7838 9.54834 10.8004C9.8207 10.8628 10.7777 10.8633 11.1339 11.0742C11.3698 11.2139 11.5818 11.5687 11.6169 11.7585C11.6706 12.0522 11.6887 12.4141 11.6305 12.7224C11.5829 12.9717 11.2898 13.3104 11.1474 13.4022C10.8046 13.6232 9.83336 13.7518 9.49158 13.7908C9.35067 13.8076 9.885 13.8625 10.2293 14.0795C10.8706 14.4818 11.0029 15.9191 9.60121 15.9812C8.94737 16.0109 8.97734 16.0048 8.53734 16.0073C8.02135 16.0103 7.70929 16.0001 7.33513 15.9742C6.93597 15.9465 6.03049 15.8658 5.59177 15.7433C5.29028 15.659 4.61165 15.3779 4.20403 15.0983C4.20403 15.0983 2.94786 14.0315 2.38519 13.9177C1.82153 13.804 1.81775 13.843 1.41962 13.8213C1.0205 13.8006 0.497335 13.9476 0.497335 13.9476C0.497335 13.9476 0.388718 13.1472 0.45622 12.7138C0.515965 12.3225 1.29116 11.834 1.52844 11.7076C1.85544 11.5337 1.79033 11.1671 1.54751 11.0255C1.16322 10.8037 0.473436 10.3227 0.428471 9.98195C0.340615 9.31344 0.386623 7.92715 0.390367 6.84211C0.390367 6.84211 1.40242 7.02128 1.74704 6.60729C2.00527 6.3008 2.52624 5.77278 2.80042 5.4572L3.71661 4.6199C4.07497 4.33483 5.77956 0.833134 6.83416 0.58605C7.64937 0.220639 8.16449 0.294831 8.88125 1.08606C9.33416 1.58606 8.84099 3.08606 8.49709 3.58606C8.15318 4.08606 7.4341 5.42467 7.33415 5.60824C7.21244 5.83195 7.88036 5.43191 7.64937 5.60824C7.34371 5.84001 7.19518 5.92287 7.5296 5.82194C7.79116 5.74443 8.12274 5.49651 8.49709 5.38235C8.85745 5.27127 9.43776 4.97592 10.0209 4.99356C10.2419 5.00029 10.7925 5.09211 11.0676 5.81954Z" stroke="black" stroke-width="0.75" stroke-linejoin="round"/>
<path d="M3.66458 12.357L7.12352 12.3371" stroke="black" stroke-width="0.75" stroke-linecap="round"/>
<path d="M3.64127 10.3415L7.11412 10.3055" stroke="black" stroke-width="0.75" stroke-linecap="round"/>
<path d="M7.07109 8.32559L3.64527 8.36634" stroke="black" stroke-width="0.75" stroke-linecap="round"/>
</svg>
