<svg width="200" height="200" viewBox="0 0 200 200" fill="none" xmlns="http://www.w3.org/2000/svg">
<g filter="url(#filter0_d_2503_497)">
<path fill-rule="evenodd" clip-rule="evenodd" d="M94.5336 130.738C95.4487 131.122 96.0866 131.405 98.0644 132.297C100.001 133.171 100.933 133.578 101.767 133.9C102.114 134.032 102.554 134.557 102.958 135.424C103.29 136.137 103.552 136.97 103.739 137.796C103.804 138.082 103.843 138.29 103.859 138.391C104.035 139.518 105.184 140.215 106.265 139.85C107.238 139.521 107.989 139.273 109.979 138.618C110.476 138.454 110.476 138.454 110.976 138.289C116.382 136.505 119.119 135.522 121.002 134.586C123.015 133.586 124.296 130.286 125.057 126.441C127.631 128.71 130.797 130.698 133.147 130.28C133.894 130.146 134.761 129.882 135.744 129.513C136.477 129.238 137.242 128.917 138.007 128.571C138.583 128.31 139.039 128.091 139.309 127.955C140.308 127.454 140.633 126.186 139.999 125.266C139.861 125.067 139.624 124.698 139.349 124.224C139.03 123.675 138.747 123.129 138.527 122.618C138.387 122.295 138.278 121.996 138.202 121.731C138.07 121.268 137.99 121.012 137.798 120.422C137.727 120.202 137.727 120.202 137.666 120.009C137.473 119.375 137.35 118.753 137.17 117.364C137.09 116.762 137.281 115.49 137.707 113.85C137.834 113.361 137.98 112.846 138.142 112.311C138.448 111.296 138.797 110.256 139.158 109.252C139.374 108.65 139.546 108.197 139.643 107.949C140.329 105.505 140.668 101.776 140.549 99.7065C140.434 97.718 139.684 94.2437 138.795 90.8818C138.286 88.9764 137.815 87.4615 136.995 85.1135C136.851 84.7016 136.851 84.7016 136.733 84.3612C136.54 83.8037 136.467 83.593 136.374 83.3333C136.121 82.6236 135.854 81.9258 135.157 80.1515C133.694 76.4343 130.778 74.7187 127.57 75.3112C124.842 75.8153 122.441 79.066 122.441 79.066C122.441 79.066 120.894 76.8892 120.159 76.307C118.97 75.3745 116.453 74.5357 114.834 74.7666C113.169 75.008 111.333 75.6865 109.741 76.579C108.348 77.3636 107.331 79.207 106.975 80.9369C106.719 82.1716 106.919 80.8955 105.938 80.0533C104.582 78.8948 102.153 78.2815 100.139 78.5535C98.4305 78.7802 96.6491 79.5429 95.1548 80.6204C93.2338 82.01 93.4621 83.7614 93.2137 83.3238C92.3815 81.8567 92.3911 81.9689 91.8232 80.9133C89.7151 76.997 87.9744 74.3856 85.9797 72.273C86.0944 72.3945 85.2424 71.48 84.9395 71.1678C84.4151 70.6273 83.9125 70.1477 83.3881 69.7009C81.7718 68.3234 80.1596 67.4325 78.4473 67.2044C75.4733 66.8069 71.9027 68.7521 70.8388 71.4748C69.7828 74.1801 70.7012 77.7663 72.6546 81.9189C73.4102 83.5321 75.0776 86.3769 76.4108 88.4445C76.8771 89.1609 77.2955 89.8167 78.066 91.0288C78.1977 91.2348 78.1977 91.2348 78.3298 91.4406C78.9182 92.3562 79.4153 93.105 79.981 93.9195C79.9219 93.8347 80.9868 95.3565 81.2185 95.6946C81.2957 95.8075 81.2957 95.8075 81.3728 95.9211C81.8106 96.5674 82.2636 97.2709 82.9999 98.4518C83.404 99.1014 83.8211 99.8004 84.2505 100.546C85.4219 102.579 85.2657 102.125 84.7076 101.799C84.322 101.574 83.963 101.373 83.6207 101.191C82.9844 100.853 82.4155 100.589 81.8974 100.401C78.1195 99.0224 75.9481 98.5887 73.3946 99.2183C69.2037 100.244 66.3555 104.452 67.1263 108.52C67.5979 111.014 68.0934 112.065 69.921 113.777C70.9195 114.698 72.4173 115.708 75.1429 117.396C75.3097 117.5 75.3097 117.5 75.4763 117.602C78.8193 119.667 79.1857 119.898 80.0225 120.509C82.286 122.165 88.1287 127.148 89.0869 127.756L94.5336 130.738Z" fill="black"/>
<path fill-rule="evenodd" clip-rule="evenodd" d="M77.4093 114.472C77.2445 114.37 77.2445 114.37 77.0799 114.268C74.5786 112.719 73.1723 111.77 72.4259 111.082C71.2459 109.976 71.0795 109.623 70.7415 107.835C70.342 105.727 71.9433 103.362 74.2723 102.792C75.8828 102.395 77.5255 102.723 80.6382 103.858C80.975 103.981 81.3983 104.177 81.896 104.441C82.1905 104.598 82.5069 104.775 82.8519 104.977C83.3702 105.279 85.1394 106.363 84.8797 106.206C85.2621 106.436 85.5423 106.62 85.8696 106.85C86.5227 107.32 86.8886 107.58 87.3753 107.907C87.147 107.754 88.8525 108.942 89.1773 109.09C90.8977 109.871 92.4043 108.181 91.7141 106.581C91.5989 106.313 91.4311 106.04 91.1161 105.57C89.2593 101.961 88.648 100.808 87.4385 98.7089C86.9893 97.9291 86.5511 97.1948 86.123 96.5066C85.3631 95.2879 84.8864 94.5475 84.419 93.8575C84.3361 93.7354 84.3361 93.7354 84.2536 93.6148C84.0099 93.2591 82.9289 91.7144 83.0012 91.8181C82.4648 91.0456 81.9913 90.3324 81.425 89.4513C81.2962 89.2506 81.2962 89.2506 81.1669 89.0483C80.4005 87.8426 79.9714 87.1701 79.4987 86.4438C78.2524 84.511 76.6557 81.7868 75.9853 80.3554C74.4647 77.1229 73.7195 74.2133 74.266 72.8133C74.6929 71.7208 76.6178 70.6722 77.9603 70.8516C78.8382 70.9686 79.8746 71.5413 81.0012 72.5014C81.4276 72.8648 81.849 73.2669 82.2984 73.73C82.5705 74.0105 83.3965 74.8971 83.3043 74.7994C85.0383 76.636 86.6146 79.0007 88.5827 82.657C89.1657 83.7405 89.8451 84.9613 90.6897 86.4502C90.9404 86.8917 90.9404 86.8917 91.1907 87.331C95.231 94.4185 94.9285 93.88 95.1594 94.4772C96.002 96.6554 99.273 95.5714 98.648 93.3211C98.4498 92.6074 98.2161 91.99 97.5109 90.2288C97.4112 89.9796 97.4112 89.9796 97.3122 89.7312C96.6662 88.1073 96.3392 87.1574 96.2485 86.5843C96.0829 85.5392 96.581 84.1299 97.309 83.6033C98.332 82.8656 99.5525 82.3431 100.627 82.2005C101.654 82.0618 103.031 82.4094 103.544 82.8481C104.164 83.38 104.851 84.2803 105.545 85.4511C106.105 86.3961 106.627 87.4374 107.132 88.5668C107.29 88.9181 107.408 89.1909 107.6 89.643C107.681 89.8322 107.681 89.8322 107.75 89.9875C107.786 90.0651 107.786 90.0651 107.848 90.1855C107.893 90.2694 107.893 90.2694 108.038 90.4712C108.294 91.0979 108.294 91.0979 110.941 90.4395C111.383 89.2466 111.383 89.2466 111.306 89.0917C111.24 88.4997 111.103 87.8619 110.812 86.6755C110.621 85.9048 110.528 85.5256 110.437 85.1307C110.057 83.4957 109.924 82.4192 110.035 81.8871C110.171 81.2253 111.059 80.06 111.544 79.7868C112.763 79.1033 114.181 78.5793 115.357 78.4087C115.891 78.3327 117.436 78.8477 117.881 79.1967C118.799 79.9238 120.425 82.7329 121.791 85.6062C121.809 85.8198 121.809 85.8198 123.001 86.6785C125.627 85.4121 125.627 85.4121 125.377 84.9452C125.388 84.7441 125.374 84.5206 125.345 84.1762C125.283 83.3682 125.262 82.8934 125.287 82.3447C125.304 81.9652 125.346 81.6313 125.411 81.3544C125.663 80.2795 126.901 79.1766 128.239 78.9296C129.675 78.6642 130.901 79.3857 131.733 81.4978C132.415 83.2364 132.672 83.9069 132.908 84.5702C132.996 84.8149 133.064 85.0119 133.257 85.5664C133.375 85.909 133.375 85.909 133.521 86.3262C134.311 88.5909 134.755 90.0188 135.239 91.8272C136.061 94.935 136.78 98.2671 136.875 99.9188C136.972 101.603 136.669 104.932 136.157 106.787C136.108 106.884 135.924 107.37 135.695 108.007C135.314 109.067 134.946 110.165 134.619 111.247C134.444 111.826 134.286 112.387 134.146 112.924C133.605 115.003 133.361 116.631 133.521 117.841C133.725 119.414 133.886 120.23 134.147 121.084C134.223 121.326 134.223 121.326 134.298 121.559C134.477 122.11 134.547 122.333 134.664 122.741C134.786 123.17 134.949 123.614 135.148 124.075C135.432 124.734 135.706 125.675 135.706 125.675C135.706 125.675 135.1 125.825 134.452 126.068C133.659 126.366 132.985 126.57 132.5 126.657C131.8 126.782 129.229 125.167 127.704 123.743C125.372 121.562 122.018 122.878 121.448 125.722C120.938 128.3 119.876 131.037 119.365 131.291C117.706 132.115 115.028 133.077 109.823 134.795C109.325 134.959 109.325 134.959 108.828 135.123C106.829 135.781 107.022 136.089 106.938 135.718C106.698 134.657 106.751 134.853 106.292 133.868C105.523 132.218 104.508 131.007 103.084 130.464C102.346 130.18 101.445 129.786 99.6242 128.964C97.5442 128.026 96.8949 127.738 96.1071 127.419L90.9552 124.589C90.3659 124.21 84.6529 119.337 82.1933 117.538C81.2371 116.84 80.8953 116.624 77.4093 114.472ZM121.46 99.1135L127.053 115.136C127.861 117.451 131.335 116.239 130.527 113.923L124.934 97.9008C124.125 95.5848 120.651 96.7976 121.46 99.1135ZM112.048 102.396L117.738 118.457C118.557 120.769 122.026 119.54 121.207 117.228L115.517 101.167C114.698 98.855 111.229 100.084 112.048 102.396ZM112.032 120.348L106.395 104.513C105.572 102.202 102.106 103.436 102.929 105.747L108.566 121.582C109.388 123.893 112.855 122.659 112.032 120.348Z" fill="white"/>
</g>
<defs>
<filter id="filter0_d_2503_497" x="57.188" y="62.2467" width="93.1964" height="92.4191" filterUnits="userSpaceOnUse" color-interpolation-filters="sRGB">
<feFlood flood-opacity="0" result="BackgroundImageFix"/>
<feColorMatrix in="SourceAlpha" type="matrix" values="0 0 0 0 0 0 0 0 0 0 0 0 0 0 0 0 0 0 127 0" result="hardAlpha"/>
<feOffset dy="4.9061"/>
<feGaussianBlur stdDeviation="4.9061"/>
<feColorMatrix type="matrix" values="0 0 0 0 0 0 0 0 0 0 0 0 0 0 0 0 0 0 0.298656 0"/>
<feBlend mode="normal" in2="BackgroundImageFix" result="effect1_dropShadow_2503_497"/>
<feBlend mode="normal" in="SourceGraphic" in2="effect1_dropShadow_2503_497" result="shape"/>
</filter>
</defs>
</svg>
